<svg xmlns="http://www.w3.org/2000/svg" height="98.667" width="1397.333">
  <defs>
    <linearGradient id="a" spreadMethod="pad" gradientTransform="scale(137.89186) rotate(20.218 -.07 1.06)" gradientUnits="userSpaceOnUse" y2="0" x2="1" y1="0" x1="0">
      <stop offset="0" stop-color="#31335a"/>
      <stop offset="1" stop-color="#35529e"/>
    </linearGradient>
    <clipPath id="b" clipPathUnits="userSpaceOnUse">
      <path d="M0 74h1048V0H0z"/>
    </clipPath>
  </defs>
  <path d="M115.409 44.474v-.001c-.088-6.905 6.155-10.76 10.857-13.051 4.832-2.352 6.454-3.859 6.436-5.961-.037-3.218-3.854-4.638-7.427-4.693-6.234-.097-9.857 1.683-12.739 3.029l-2.245-10.507c2.89-1.333 8.244-2.495 13.795-2.545 13.028 0 21.553 6.431 21.599 16.403.05 12.655-17.506 13.357-17.386 19.013.042 1.715 1.678 3.545 5.265 4.011 1.775.235 6.676.415 12.232-2.143l2.18 10.165c-2.988 1.088-6.828 2.13-11.609 2.13-12.263 0-20.889-6.518-20.958-15.85m53.521 14.975c-2.379 0-4.385-1.388-5.279-3.519l-18.612-44.439h13.02l2.591 7.161h15.91l1.503-7.161h11.475l-10.013 47.958zm1.821-12.956l3.757-18.008h-10.29zM99.623 59.449L89.36 11.491h12.407l10.258 47.958zm-18.354 0L68.356 26.807l-5.224 27.755c-.613 3.097-3.034 4.887-5.721 4.887H36.3l-.295-1.393c4.334-.941 9.258-2.458 12.24-4.08 1.826-.991 2.347-1.858 2.946-4.214l9.894-38.271h13.112l20.101 47.958z" fill="url(#a)" transform="matrix(1.33333 0 0 -1.33333 0 98.667)"/>
  <g clip-path="url(#b)" transform="matrix(1.33333 0 0 -1.33333 0 98.667)">
    <path d="M262.718 1.227V6.01c0 1.802-1.148 3.014-2.999 3.03-.973.017-1.977-.287-2.68-1.356-.526.846-1.354 1.356-2.519 1.356-.814 0-1.61-.24-2.232-1.131v.94h-1.66V1.227h1.674v4.226c0 1.323.734 2.026 1.868 2.026 1.1 0 1.657-.718 1.657-2.01V1.227h1.676v4.226c0 1.323.765 2.026 1.865 2.026 1.132 0 1.674-.718 1.674-2.01V1.227zm24.784 7.623h-2.71v2.313h-1.677V8.85h-1.546V7.334h1.546V3.857c0-1.77.687-2.822 2.647-2.822.72 0 1.548.223 2.074.589l-.478 1.42c-.495-.286-1.037-.43-1.468-.43-.829 0-1.099.51-1.099 1.276v3.444h2.711zm14.145.19c-.956 0-1.579-.446-2.008-1.116v.926h-1.643V1.227h1.658V5.5c0 1.26.542 1.962 1.626 1.962.336 0 .687-.048 1.037-.191l.511 1.562a3.51 3.51 0 01-1.18.208m-21.388-.797c-.797.525-1.896.797-3.108.797-1.932 0-3.175-.925-3.175-2.44 0-1.243.926-2.01 2.631-2.25l.783-.11c.91-.128 1.338-.368 1.338-.798 0-.59-.606-.926-1.738-.926-1.148 0-1.977.367-2.535.798l-.78-1.29c.907-.67 2.056-.99 3.3-.99 2.2 0 3.476 1.037 3.476 2.488 0 1.34-1.004 2.04-2.663 2.28l-.78.113c-.719.095-1.294.238-1.294.748 0 .559.542.893 1.451.893.973 0 1.915-.366 2.377-.653zm44.433.797c-.956 0-1.579-.447-2.01-1.117v.926h-1.643V1.227h1.66V5.5c0 1.26.542 1.962 1.626 1.962a2.71 2.71 0 001.037-.191l.511 1.562a3.51 3.51 0 01-1.18.208m-21.37-4.002c0-2.314 1.61-4.004 4.066-4.004 1.148 0 1.913.255 2.742.909l-.796 1.34c-.623-.448-1.276-.686-1.995-.686-1.324.016-2.297.973-2.297 2.44 0 1.468.973 2.424 2.297 2.44.72 0 1.372-.238 1.995-.686l.796 1.34c-.829.654-1.594.909-2.742.909-2.457 0-4.067-1.69-4.067-4.002m15.532 0v3.81h-1.657v-.925c-.528.687-1.324 1.117-2.408 1.117-2.137 0-3.813-1.675-3.813-4.002 0-2.33 1.676-4.004 3.813-4.004 1.084 0 1.88.43 2.408 1.117v-.925h1.657zm-6.17 0c0 1.339.877 2.44 2.311 2.44 1.371 0 2.297-1.054 2.297-2.44 0-1.388-.926-2.441-2.297-2.441-1.434 0-2.312 1.1-2.312 2.44M292.67 9.042c-2.235 0-3.797-1.627-3.797-4.002 0-2.425 1.626-4.004 3.908-4.004 1.148 0 2.2.287 3.125 1.068l-.812 1.228c-.639-.51-1.453-.797-2.218-.797-1.068 0-2.04.495-2.28 1.867h5.661c.016.207.032.415.032.638-.016 2.375-1.484 4.002-3.619 4.002m-.033-1.484c1.068 0 1.754-.67 1.93-1.85h-3.956c.177 1.102.845 1.85 2.026 1.85m41.61-2.518v6.872h-1.659V7.924c-.526.687-1.324 1.117-2.408 1.117-2.137 0-3.813-1.675-3.813-4.002 0-2.33 1.676-4.004 3.813-4.004 1.084 0 1.882.43 2.408 1.117v-.925h1.66zm-6.174 0c0 1.339.88 2.44 2.313 2.44 1.373 0 2.297-1.054 2.297-2.44 0-1.388-.924-2.441-2.297-2.441-1.434 0-2.313 1.1-2.313 2.44m-56.01 0V8.85h-1.658v-.926c-.526.687-1.323 1.117-2.408 1.117-2.137 0-3.813-1.675-3.813-4.002 0-2.33 1.676-4.004 3.813-4.004 1.085 0 1.882.43 2.408 1.117v-.925h1.657zm-6.172 0c0 1.34.878 2.44 2.312 2.44 1.371 0 2.297-1.053 2.297-2.44s-.926-2.44-2.297-2.44c-1.434 0-2.312 1.1-2.312 2.44m71.12-2.707a.76.76 0 00.301-.06.753.753 0 000-1.395.76.76 0 00-.3-.06.775.775 0 00-.716.464.707.707 0 00-.06.294.758.758 0 00.471.697c.094.04.195.06.304.06m0-1.35a.616.616 0 01.415.174.595.595 0 010 .837.586.586 0 01-.415.17.614.614 0 01-.232-.044.574.574 0 01-.314-.315.56.56 0 01-.045-.23.573.573 0 01.17-.417.595.595 0 01.19-.126.564.564 0 01.231-.048m.045.946c.09 0 .16-.02.21-.06a.2.2 0 00.072-.164.19.19 0 00-.058-.145.285.285 0 00-.167-.07l.23-.264h-.179l-.213.263h-.069v-.263h-.15v.703zm-.174-.132v-.188h.173a.19.19 0 01.095.024c.022.015.034.04.034.072a.08.08 0 01-.034.069.172.172 0 01-.095.023z" fill="#2f2d2e"/>
    <path d="M336.062 26.578v.923h.373v.188h-.95v-.188h.372v-.923zm1.842 0v1.113h-.29l-.336-.764-.334.764h-.293v-1.113h.207v.84l.314-.726h.213l.314.727v-.84z" fill="#f49729"/>
    <path d="M304.9 21.788h-25.121v45.146H304.9z" fill="#ec662b"/>
    <path d="M281.389 44.365c0 9.158 4.288 17.316 10.965 22.573a28.585 28.585 0 01-17.743 6.139c-15.855 0-28.708-12.855-28.708-28.712 0-15.858 12.853-28.712 28.708-28.712a28.59 28.59 0 0117.743 6.138c-6.677 5.258-10.965 13.415-10.965 22.574" fill="#e5262e"/>
    <path d="M338.78 44.365c0-15.858-12.853-28.712-28.708-28.712a28.605 28.605 0 00-17.746 6.138c6.68 5.258 10.968 13.415 10.968 22.574 0 9.158-4.288 17.316-10.968 22.573a28.6 28.6 0 0017.746 6.139c15.855 0 28.708-12.855 28.708-28.712" fill="#f6a02d"/>
    <path d="M535.327 40.826h-5.515a1.597 1.597 0 01-1.319-.7l-7.607-11.204-3.224 10.768a1.596 1.596 0 01-1.528 1.136h-5.42a.955.955 0 01-.907-1.264l6.075-17.827-5.71-8.063a.955.955 0 01.778-1.51h5.508a1.588 1.588 0 011.31.685l18.344 26.479a.956.956 0 01-.785 1.5m-36.88-10.682c-.53-3.136-3.019-5.24-6.193-5.24-1.594 0-2.868.51-3.685 1.479-.812.962-1.12 2.33-.862 3.857.495 3.108 3.025 5.282 6.151 5.282 1.558 0 2.825-.518 3.66-1.495.836-.987 1.168-2.365.928-3.883m7.651 10.682h-5.489a.956.956 0 01-.944-.806l-.242-1.535-.384.556c-1.189 1.725-3.838 2.3-6.482 2.3-6.065 0-11.246-4.592-12.255-11.036-.524-3.215.221-6.288 2.045-8.432 1.672-1.97 4.065-2.792 6.913-2.792 4.887 0 7.597 3.143 7.597 3.143l-.245-1.525a.956.956 0 01.942-1.106h4.944a1.592 1.592 0 011.574 1.346l2.966 18.784a.952.952 0 01-.94 1.103m-32.938-.132c-.627-4.113-3.77-4.113-6.808-4.113h-1.729l1.213 7.68a.956.956 0 00.944.807h.792c2.07 0 4.023 0 5.031-1.18.602-.704.787-1.75.557-3.194m-1.323 10.734h-11.46a1.593 1.593 0 01-1.575-1.344l-4.635-29.39a.954.954 0 01.945-1.103h5.472a1.592 1.592 0 011.574 1.346l1.25 7.927a1.591 1.591 0 001.572 1.345h3.628c7.55 0 11.907 3.654 13.045 10.894.513 3.167.022 5.656-1.46 7.399-1.63 1.913-4.519 2.926-8.356 2.926" fill="#314482"/>
    <path d="M594.317 50.622l-4.704-29.928a.952.952 0 01.941-1.103h4.73c.786 0 1.453.57 1.573 1.346l4.64 29.388a.957.957 0 01-.943 1.105h-5.296a.957.957 0 01-.94-.808m-14.122-20.478c-.526-3.136-3.019-5.24-6.192-5.24-1.59 0-2.868.51-3.686 1.479-.812.962-1.116 2.33-.86 3.857.497 3.108 3.024 5.282 6.15 5.282 1.558 0 2.824-.518 3.66-1.495.84-.987 1.171-2.364.928-3.883m7.65 10.682h-5.485a.948.948 0 01-.94-.806l-.245-1.535-.385.556c-1.189 1.725-3.836 2.3-6.48 2.3-6.066 0-11.245-4.592-12.254-11.036-.522-3.215.22-6.288 2.043-8.432 1.676-1.97 4.067-2.792 6.913-2.792 4.887 0 7.597 3.143 7.597 3.143l-.244-1.525a.955.955 0 01.945-1.106h4.943c.783 0 1.45.57 1.571 1.346l2.968 18.785a.957.957 0 01-.947 1.102m-32.936-.132c-.625-4.113-3.768-4.113-6.808-4.113h-1.727l1.214 7.68a.954.954 0 00.943.807h.792c2.068 0 4.022 0 5.031-1.18.602-.704.784-1.75.555-3.194m-1.322 10.734h-11.463a1.593 1.593 0 01-1.573-1.344l-4.635-29.39a.954.954 0 01.942-1.103h5.882a1.114 1.114 0 011.1.942l1.315 8.33a1.592 1.592 0 001.572 1.346h3.627c7.552 0 11.907 3.654 13.047 10.894.515 3.167.02 5.656-1.463 7.399-1.628 1.913-4.516 2.926-8.35 2.926" fill="#289cd8"/>
    <path d="M406.57 13.879l.875 5.567-1.952.046h-9.323l6.48 41.08a.53.53 0 00.525.45h15.72c5.218 0 8.82-1.086 10.7-3.23.882-1.005 1.443-2.056 1.715-3.212.285-1.213.29-2.663.011-4.431l-.02-.13v-1.132l.882-.5a6.163 6.163 0 001.785-1.361c.754-.86 1.242-1.952 1.448-3.247.213-1.333.142-2.918-.206-4.713-.403-2.064-1.053-3.863-1.93-5.334a10.966 10.966 0 00-3.06-3.352c-1.166-.828-2.552-1.456-4.119-1.858-1.518-.396-3.249-.595-5.148-.595h-1.223a3.715 3.715 0 01-2.392-.88 3.703 3.703 0 01-1.247-2.226L416 24.32l-1.549-9.812-.07-.36c-.019-.115-.05-.171-.097-.21a.257.257 0 00-.16-.06z" fill="#314482"/>
    <path d="M433.018 49.89c-.047-.3-.1-.608-.16-.923-2.074-10.643-9.166-14.32-18.225-14.32h-4.612a2.238 2.238 0 01-2.213-1.897l-2.362-14.976-.668-4.245a1.179 1.179 0 011.164-1.364h8.18c.97 0 1.792.704 1.944 1.66l.081.414 1.54 9.775.1.536c.15.958.974 1.662 1.943 1.662h1.223c7.925 0 14.13 3.218 15.943 12.53.757 3.89.365 7.136-1.639 9.421a7.835 7.835 0 01-2.239 1.726" fill="#289cd8"/>
    <path d="M430.85 50.754c-.662.19-1.335.34-2.016.447a25.62 25.62 0 01-4.066.297h-12.321a1.965 1.965 0 01-1.943-1.662l-2.621-16.602-.075-.484a2.239 2.239 0 002.214 1.897h4.612c9.058 0 16.15 3.678 18.223 14.32.062.315.115.622.16.922-.546.287-1.116.528-1.703.719-.154.05-.31.1-.464.146" fill="#303968"/>
    <path d="M410.504 49.835a1.96 1.96 0 001.942 1.661h12.322c1.459 0 2.822-.096 4.066-.297a16.32 16.32 0 002.482-.592 11.233 11.233 0 001.704-.718c.616 3.933-.005 6.611-2.132 9.036-2.344 2.67-6.576 3.813-11.991 3.813h-15.72a2.247 2.247 0 01-2.22-1.899l-6.548-41.504a1.35 1.35 0 011.332-1.56h9.705l2.437 15.46z" fill="#314482"/>
    <path d="M778.058 34.944c0 4.547 2.776 6.438 5.312 6.438 2.455 0 5.07-1.89 5.07-6.438zm19.88-3.823c0 10.302-4.99 18.43-14.527 18.43-9.58 0-15.374-8.128-15.374-18.35 0-12.113 6.84-18.23 16.66-18.23 4.79 0 8.412 1.086 11.148 2.616v8.048c-2.736-1.368-5.875-2.213-9.86-2.213-3.903 0-7.364 1.37-7.806 6.117h19.679c0 .523.08 2.616.08 3.582M750.089 21.824c-2.374 0-3.783.846-4.75 1.892l-.04 14.93c1.048 1.167 2.496 1.972 4.79 1.972 3.662 0 6.197-4.105 6.197-9.377 0-5.393-2.495-9.417-6.197-9.417m2.414 27.728c-3.943 0-6.478-1.852-7.887-3.139l-.523 2.495h-8.854V1.985l10.06 2.133.04 11.39c1.45-1.048 3.583-2.537 7.124-2.537 7.204 0 13.764 5.795 13.764 18.552-.041 11.671-6.681 18.03-13.724 18.03M731.497 54.1v8.169l-10.102-2.133v-8.21zM721.396 48.868h10.102V13.656h-10.102zM710.57 45.89l-.644 2.978h-8.692V13.656h10.061V37.52c2.374 3.099 6.398 2.535 7.645 2.092v9.256c-1.287.483-5.996 1.369-8.37-2.978M690.45 57.6l-9.82-2.092-.04-32.234c0-5.956 4.466-10.343 10.422-10.343 3.3 0 5.714.605 7.042 1.328v8.17c-1.288-.523-7.645-2.375-7.645 3.58v14.287h7.645v8.572h-7.645zM663.245 38.646c0 1.57 1.287 2.173 3.42 2.173 3.06 0 6.922-.925 9.98-2.575v9.457c-3.339 1.328-6.639 1.851-9.98 1.851-8.169 0-13.602-4.266-13.602-11.389 0-11.106 15.292-9.336 15.292-14.125 0-1.851-1.609-2.455-3.863-2.455-3.34 0-7.605 1.368-10.986 3.22v-9.578c3.743-1.61 7.525-2.294 10.986-2.294 8.371 0 14.125 4.145 14.125 11.348-.04 11.993-15.372 9.86-15.372 14.367" fill="#6470b3" fill-rule="evenodd"/>
    <path d="M877.58 48.21h-23.89v-7.678h15.7c1.023 0 1.706-.853 1.706-1.706V25.345h-3.413c-1.024 0-1.707.853-1.707 1.706v9.727h-6.655a6.117 6.117 0 01-6.143-6.143v-6.826a6.117 6.117 0 016.143-6.143h24.403v24.402a6.118 6.118 0 01-6.144 6.143M906.76 25.345h-3.412c-1.025 0-1.707.854-1.707 1.706v21.16h-6.655a6.117 6.117 0 01-6.143-6.143v-18.26a6.117 6.117 0 016.143-6.142h24.402V61.01H906.59zM942.425 25.345h-3.413c-1.024 0-1.706.854-1.706 1.706v21.16h-12.8V23.809a6.117 6.117 0 016.145-6.143h11.774V13.91H925.02V5.038h24.06a6.118 6.118 0 016.143 6.143v37.03h-12.798zM984.744 48.21h-24.572V23.81a6.117 6.117 0 016.143-6.143h24.061v7.679h-15.699c-1.025 0-1.707.853-1.707 1.706v13.48h3.413c1.024 0 1.707-.852 1.707-1.705v-9.727h6.654a6.118 6.118 0 016.144 6.143v6.826a6.118 6.118 0 01-6.144 6.143M1020.41 48.21h-24.403V17.667h12.798v22.866h3.413c1.024 0 1.707-.853 1.707-1.706v-21.16h12.797v24.402c-.169 3.413-2.9 6.143-6.313 6.143" fill="#4aaf5a"/>
  </g>
</svg>
